<?xml version="1.0" encoding="UTF-8" standalone="no"?>
<!-- Created with Inkscape (http://www.inkscape.org/) -->

<svg
   width="665.28278"
   height="190.78883"
   viewBox="0 0 176.02273 50.479546"
   version="1.1"
   id="svg1"
   xml:space="preserve"
   inkscape:export-filename="nversion-logo-plain.svg"
   inkscape:export-xdpi="150"
   inkscape:export-ydpi="150"
   inkscape:version="1.4 (e7c3feb1, 2024-10-09)"
   sodipodi:docname="nversion-logo-plain.svg"
   xmlns:inkscape="http://www.inkscape.org/namespaces/inkscape"
   xmlns:sodipodi="http://sodipodi.sourceforge.net/DTD/sodipodi-0.dtd"
   xmlns="http://www.w3.org/2000/svg"
   xmlns:svg="http://www.w3.org/2000/svg"><sodipodi:namedview
     id="namedview1"
     pagecolor="#ffffff"
     bordercolor="#000000"
     borderopacity="0.25"
     inkscape:showpageshadow="2"
     inkscape:pageopacity="0.0"
     inkscape:pagecheckerboard="0"
     inkscape:deskcolor="#d1d1d1"
     inkscape:document-units="mm"
     showguides="false"
     inkscape:zoom="0.7107715"
     inkscape:cx="243.39749"
     inkscape:cy="-94.967229"
     inkscape:window-width="2560"
     inkscape:window-height="1324"
     inkscape:window-x="0"
     inkscape:window-y="25"
     inkscape:window-maximized="0"
     inkscape:current-layer="layer1" /><defs
     id="defs1"><rect
       x="220.13307"
       y="79.053314"
       width="175.38904"
       height="40.134758"
       id="rect19" /><rect
       x="170.26868"
       y="121.62048"
       width="480.40091"
       height="222.56548"
       id="rect18" /><clipPath
       id="clip0_9045_20711"><rect
         width="485.91299"
         height="110"
         fill="#ffffff"
         transform="translate(86.7935,165)"
         id="rect9"
         x="0"
         y="0" /></clipPath><linearGradient
       id="paint0_linear_1_33"
       x1="61.000301"
       y1="136"
       x2="104.622"
       y2="115.39"
       gradientUnits="userSpaceOnUse"><stop
         stop-color="#D83333"
         id="stop8" /><stop
         offset="1"
         stop-color="#F041FF"
         id="stop9" /></linearGradient><clipPath
       clipPathUnits="userSpaceOnUse"
       id="clipPath13"><circle
         style="fill:#ff0000;fill-opacity:0.287273;stroke:#f90500;stroke-width:0.370001;stroke-dasharray:none;stroke-opacity:1"
         id="circle13"
         cx="381.82288"
         cy="72.34539"
         r="104.94548" /></clipPath><rect
       x="220.13307"
       y="79.053314"
       width="29.188892"
       height="37.702347"
       id="rect19-3" /></defs><g
     inkscape:label="Layer 1"
     inkscape:groupmode="layer"
     id="layer1"
     transform="translate(-42.681037,-35.854518)"><path
       style="fill:#ff0000;stroke-width:0.264583"
       d="M 263.92671,167.91276 274.64453,89.315299"
       id="path11" /><text
       xml:space="preserve"
       style="font-size:3.175px;text-align:start;writing-mode:lr-tb;direction:ltr;text-anchor:start;fill:#ff0000;fill-opacity:0.287273;stroke:none;stroke-width:0.370001;stroke-dasharray:none;stroke-opacity:1"
       x="28.317299"
       y="35.074841"
       id="text16"><tspan
         sodipodi:role="line"
         id="tspan16"
         style="stroke-width:0.37"
         x="28.317299"
         y="35.074841" /></text><text
       xml:space="preserve"
       style="font-size:3.175px;text-align:start;writing-mode:lr-tb;direction:ltr;text-anchor:start;fill:#ff0000;fill-opacity:0.287273;stroke:none;stroke-width:0.370001;stroke-dasharray:none;stroke-opacity:1"
       x="56.634605"
       y="51.486004"
       id="text17"><tspan
         sodipodi:role="line"
         id="tspan17"
         style="stroke-width:0.37"
         x="56.634605"
         y="51.486004" /></text><text
       xml:space="preserve"
       transform="scale(0.26458333)"
       id="text18"
       style="text-align:start;writing-mode:lr-tb;direction:ltr;white-space:pre;shape-inside:url(#rect18);display:inline;fill:#ff0000;fill-opacity:0.287273;stroke:none;stroke-width:1.39843;stroke-dasharray:none;stroke-opacity:1" /><path
       style="font-weight:bold;font-size:33.4734px;font-family:Helvetica;-inkscape-font-specification:'Helvetica Bold';white-space:pre;fill:#1a1a1a;fill-opacity:0.992727;stroke-width:1.39843"
       d="m 220.901,86.43563 h 5.37732 l 5.23022,18.28942 5.27925,-18.28942 h 5.23022 l -8.22125,24.09169 h -4.75623 z m 37.1509,18.86148 q -0.17979,1.58541 -1.65079,3.21985 -2.28822,2.59876 -6.40702,2.59876 -3.39964,0 -5.99841,-2.19015 -2.59876,-2.19015 -2.59876,-7.12617 0,-4.625478 2.33725,-7.093487 2.3536,-2.468009 6.09648,-2.468009 2.22284,0 4.00438,0.833566 1.78155,0.833566 2.942,2.631453 1.04604,1.585411 1.35659,3.677498 0.17979,1.225829 0.1471,3.530399 h -12.19295 q 0.0981,2.68049 1.68348,3.75922 0.96432,0.67012 2.32091,0.67012 1.43831,0 2.33725,-0.81722 0.49033,-0.4413 0.86626,-1.22583 z m -4.60913,-5.459045 q -0.11441,-1.846921 -1.12777,-2.794898 -0.99701,-0.964322 -2.48435,-0.964322 -1.6181,0 -2.51705,1.013355 -0.8826,1.013355 -1.11142,2.745865 z m 16.93283,-2.827587 q -2.81124,0 -3.77556,1.830577 -0.53937,1.029699 -0.53937,3.170815 v 8.51545 h -4.69085 V 92.711892 h 4.44568 v 3.105442 q 1.07874,-1.781543 1.87961,-2.43532 1.30756,-1.095077 3.39965,-1.095077 0.13075,0 0.21247,0.01634 0.0981,0 0.40861,0.01635 V 97.0922 q -0.4413,-0.04903 -0.78453,-0.06538 -0.34323,-0.01634 -0.55571,-0.01634 z m 16.34443,-3.481364 q 2.09209,1.340243 2.40263,4.60913 h -4.65816 q -0.0981,-0.898944 -0.50668,-1.421966 -0.76819,-0.947977 -2.61511,-0.947977 -1.52003,0 -2.17381,0.473989 -0.63743,0.473988 -0.63743,1.111421 0,0.800877 0.68647,1.160455 0.68646,0.375922 4.85429,1.29121 2.77856,0.653774 4.16783,1.977674 1.37294,1.34025 1.37294,3.35061 0,2.6478 -1.97768,4.33128 -1.96133,1.66713 -6.08013,1.66713 -4.20052,0 -6.21088,-1.7652 -1.99402,-1.78154 -1.99402,-4.52741 h 4.72354 q 0.1471,1.24218 0.63743,1.7652 0.86625,0.93163 3.20351,0.93163 1.37293,0 2.17381,-0.40861 0.81722,-0.40861 0.81722,-1.22583 0,-0.78453 -0.65378,-1.19314 -0.65377,-0.40861 -4.85429,-1.40562 -3.02372,-0.75185 -4.2659,-1.87961 -1.24218,-1.11143 -1.24218,-3.203514 0,-2.468009 1.92865,-4.233208 1.94498,-1.781543 5.45904,-1.781543 3.33426,0 5.44269,1.323899 z m 11.13056,-0.817222 v 17.815428 h -4.72354 V 92.711892 Z m 0,-6.423362 v 4.298586 h -4.72354 V 86.28853 Z m 19.36816,8.678894 q 2.25553,2.827587 2.25553,6.684876 0,3.92266 -2.25553,6.71756 -2.25553,2.77855 -6.84832,2.77855 -4.59278,0 -6.84831,-2.77855 -2.25554,-2.7949 -2.25554,-6.71756 0,-3.857289 2.25554,-6.684876 2.25553,-2.827587 6.84831,-2.827587 4.59279,0 6.84832,2.827587 z m -6.86466,1.111421 q -2.04306,0 -3.15448,1.454655 -1.09507,1.43831 -1.09507,4.1188 0,2.68048 1.09507,4.13514 1.11142,1.45465 3.15448,1.45465 2.04305,0 3.13813,-1.45465 1.09508,-1.45466 1.09508,-4.13514 0,-2.68049 -1.09508,-4.1188 -1.09508,-1.454655 -3.13813,-1.454655 z m 20.83915,0.08172 q -2.36994,0 -3.25254,2.010365 -0.45765,1.062388 -0.45765,2.713177 v 9.64321 h -4.64182 V 92.744581 h 4.49472 v 2.598765 q 0.89895,-1.372933 1.69982,-1.977677 1.43831,-1.078732 3.64481,-1.078732 2.76221,0 4.51107,1.454654 1.7652,1.438311 1.7652,4.788919 v 11.99681 h -4.77258 V 99.690965 q 0,-1.405621 -0.37592,-2.157465 -0.68647,-1.372932 -2.61511,-1.372932 z"
       id="text19"
       transform="matrix(1.0171956,0,0,1.0171956,-131.6601,-39.321703)"
       aria-label="Version" /><path
       style="font-weight:bold;font-size:31.5672px;font-family:Helvetica;-inkscape-font-specification:'Helvetica Bold';white-space:pre;fill:#191919;fill-opacity:0.996078;stroke-width:1.39843"
       d="m 240.91044,108.73495 h -4.74741 L 226.884,92.596836 v 16.138114 h -4.42372 V 86.015198 h 4.97861 l 9.04783,15.860672 V 86.015198 h 4.42372 z"
       id="text19-4"
       transform="matrix(1.0786203,0,0,1.0786203,-180.79999,-43.93644)"
       aria-label="N" /><rect
       style="fill:none;fill-opacity:0.992727;stroke:#000000;stroke-width:4.29592;stroke-dasharray:none;stroke-opacity:1"
       id="rect20"
       width="36.193825"
       height="36.193825"
       x="51.003628"
       y="42.997379" /></g></svg>
