<?xml version="1.0" encoding="UTF-8" standalone="no"?>
<!-- Created with Inkscape (http://www.inkscape.org/) -->

<svg
   width="3840"
   height="2160"
   viewBox="0 0 1016 571.50001"
   version="1.1"
   id="svg1"
   xml:space="preserve"
   inkscape:export-filename="nversion-video-background.png"
   inkscape:export-xdpi="87"
   inkscape:export-ydpi="87"
   inkscape:version="1.4 (e7c3feb1, 2024-10-09)"
   sodipodi:docname="nversion-video-background.svg"
   xmlns:inkscape="http://www.inkscape.org/namespaces/inkscape"
   xmlns:sodipodi="http://sodipodi.sourceforge.net/DTD/sodipodi-0.dtd"
   xmlns="http://www.w3.org/2000/svg"
   xmlns:svg="http://www.w3.org/2000/svg"><sodipodi:namedview
     id="namedview1"
     pagecolor="#ffffff"
     bordercolor="#000000"
     borderopacity="0.25"
     inkscape:showpageshadow="2"
     inkscape:pageopacity="0.0"
     inkscape:pagecheckerboard="0"
     inkscape:deskcolor="#d1d1d1"
     inkscape:document-units="mm"
     showguides="false"
     inkscape:zoom="0.16009786"
     inkscape:cx="1995.6544"
     inkscape:cy="1146.174"
     inkscape:window-width="2560"
     inkscape:window-height="1316"
     inkscape:window-x="0"
     inkscape:window-y="31"
     inkscape:window-maximized="0"
     inkscape:current-layer="layer1"
     inkscape:export-bgcolor="#ffffffff" /><defs
     id="defs1"><rect
       x="220.13307"
       y="79.053314"
       width="175.38904"
       height="40.134758"
       id="rect19" /><rect
       x="170.26868"
       y="121.62048"
       width="480.40091"
       height="222.56548"
       id="rect18" /><clipPath
       id="clip0_9045_20711"><rect
         width="485.91299"
         height="110"
         fill="#ffffff"
         transform="translate(86.7935,165)"
         id="rect9"
         x="0"
         y="0" /></clipPath><linearGradient
       id="paint0_linear_1_33"
       x1="61.000301"
       y1="136"
       x2="104.622"
       y2="115.39"
       gradientUnits="userSpaceOnUse"><stop
         stop-color="#D83333"
         id="stop8" /><stop
         offset="1"
         stop-color="#F041FF"
         id="stop9" /></linearGradient><clipPath
       clipPathUnits="userSpaceOnUse"
       id="clipPath13"><circle
         style="fill:#ff0000;fill-opacity:0.287273;stroke:#f90500;stroke-width:0.370001;stroke-dasharray:none;stroke-opacity:1"
         id="circle13"
         cx="381.82288"
         cy="72.34539"
         r="104.94548" /></clipPath><rect
       x="220.13307"
       y="79.053314"
       width="29.188892"
       height="37.702347"
       id="rect19-3" /></defs><g
     inkscape:label="Layer 1"
     inkscape:groupmode="layer"
     id="layer1"
     transform="translate(-42.681037,-35.854518)"><text
       xml:space="preserve"
       style="font-size:3.175px;text-align:start;writing-mode:lr-tb;direction:ltr;text-anchor:start;fill:#ff0000;fill-opacity:0.287273;stroke:none;stroke-width:0.370001;stroke-dasharray:none;stroke-opacity:1"
       x="28.317299"
       y="35.074841"
       id="text16"><tspan
         sodipodi:role="line"
         id="tspan16"
         style="stroke-width:0.37"
         x="28.317299"
         y="35.074841" /></text><text
       xml:space="preserve"
       style="font-size:3.175px;text-align:start;writing-mode:lr-tb;direction:ltr;text-anchor:start;fill:#ff0000;fill-opacity:0.287273;stroke:none;stroke-width:0.370001;stroke-dasharray:none;stroke-opacity:1"
       x="56.634605"
       y="51.486004"
       id="text17"><tspan
         sodipodi:role="line"
         id="tspan17"
         style="stroke-width:0.37"
         x="56.634605"
         y="51.486004" /></text><text
       xml:space="preserve"
       transform="scale(0.26458333)"
       id="text18"
       style="text-align:start;writing-mode:lr-tb;direction:ltr;white-space:pre;shape-inside:url(#rect18);display:inline;fill:#ff0000;fill-opacity:0.287273;stroke:none;stroke-width:1.39843;stroke-dasharray:none;stroke-opacity:1" /><path
       style="font-weight:bold;font-size:33.4734px;font-family:Helvetica;-inkscape-font-specification:'Helvetica Bold';white-space:pre;fill:#1a1a1a;fill-opacity:0.992727;stroke-width:2.06647"
       d="m 142.19618,84.684692 h 7.94607 l 7.72872,27.026338 7.80116,-27.026338 h 7.72872 l -12.14857,35.600358 h -7.0283 z m 54.89799,27.871678 q -0.26567,2.34276 -2.43938,4.75797 -3.3813,3.8402 -9.46767,3.8402 -5.02366,0 -8.86386,-3.23639 -3.8402,-3.23639 -3.8402,-10.53037 0,-6.83507 3.45376,-10.48206 3.47792,-3.646987 9.00878,-3.646987 3.2847,0 5.91729,1.231763 2.6326,1.231764 4.3474,3.888503 1.54574,2.342781 2.00464,5.434261 0.26568,1.8114 0.21738,5.21687 h -18.01757 q 0.14498,3.96098 2.48768,5.55502 1.42498,0.99023 3.42962,0.99023 2.12539,0 3.45376,-1.2076 0.72456,-0.65211 1.28007,-1.81141 z m -6.81093,-8.06686 q -0.16905,-2.7292 -1.66651,-4.13003 -1.47327,-1.424974 -3.67113,-1.424974 -2.39106,0 -3.71945,1.497434 -1.30422,1.49744 -1.64234,4.05757 z m 25.02169,-4.17833 q -4.15417,0 -5.57915,2.70506 -0.79702,1.52158 -0.79702,4.68552 v 12.58329 h -6.9317 V 93.959149 h 6.5694 v 4.588918 q 1.59406,-2.632595 2.77751,-3.598685 1.93219,-1.618187 5.02367,-1.618187 0.19322,0 0.31397,0.02412 0.14498,0 0.60381,0.02411 v 7.052445 q -0.65212,-0.0725 -1.15931,-0.0966 -0.50719,-0.0241 -0.82118,-0.0241 z m 24.15223,-5.144427 q 3.09148,1.980483 3.55036,6.810927 h -6.88337 q -0.14498,-1.32837 -0.74872,-2.101244 -1.13516,-1.400831 -3.86436,-1.400831 -2.24616,0 -3.21225,0.700416 -0.94193,0.700415 -0.94193,1.642359 0,1.18346 1.0144,1.71481 1.01439,0.55549 7.17321,1.90802 4.10587,0.96609 6.1588,2.92241 2.0288,1.9805 2.0288,4.95122 0,3.91266 -2.92241,6.40034 -2.89827,2.46352 -8.98464,2.46352 -6.20712,0 -9.17784,-2.60844 -2.94656,-2.6326 -2.94656,-6.69017 h 6.97999 q 0.21737,1.83558 0.94193,2.60844 1.28006,1.37667 4.73384,1.37667 2.02878,0 3.21224,-0.60381 1.20761,-0.60379 1.20761,-1.8114 0,-1.1593 -0.96609,-1.76311 -0.96607,-0.60381 -7.1732,-2.07709 -4.46816,-1.11101 -6.30374,-2.7775 -1.83557,-1.64236 -1.83557,-4.73384 0,-3.646989 2.84997,-6.255425 2.87411,-2.632595 8.06685,-2.632595 4.92704,0 8.04268,1.956323 z m 16.44765,-1.207604 v 26.325901 h -6.97998 V 93.959149 Z m 0,-9.491828 v 6.352044 h -6.97998 v -6.352044 z m 28.62039,12.824838 q 3.333,4.178321 3.333,9.878251 0,5.79652 -3.333,9.92656 -3.33301,4.10587 -10.11978,4.10587 -6.78677,0 -10.11978,-4.10587 -3.33301,-4.13004 -3.33301,-9.92656 0,-5.69993 3.33301,-9.878251 3.33301,-4.178335 10.11978,-4.178335 6.78677,0 10.11978,4.178335 z m -10.14394,1.642347 q -3.01903,0 -4.66138,2.149554 -1.61819,2.12539 -1.61819,6.08635 0,3.96095 1.61819,6.11052 1.64235,2.14953 4.66138,2.14953 3.01904,0 4.63724,-2.14953 1.6182,-2.14957 1.6182,-6.11052 0,-3.96096 -1.6182,-6.08635 -1.6182,-2.149554 -4.63724,-2.149554 z m 30.79409,0.120721 q -3.50208,0 -4.80629,2.970733 -0.67627,1.56988 -0.67627,4.00927 v 14.24979 h -6.85924 V 94.007423 h 6.64187 v 3.840199 q 1.32838,-2.028785 2.51183,-2.922413 2.12539,-1.594043 5.38594,-1.594043 4.08173,0 6.66602,2.149535 2.60845,2.125406 2.60845,7.076609 v 17.72771 h -7.05246 v -16.01291 q 0,-2.07708 -0.55551,-3.18808 -1.01439,-2.028789 -3.86434,-2.028789 z"
       id="text19"
       aria-label="Version" /><path
       style="font-weight:bold;font-size:31.5672px;font-family:Helvetica;-inkscape-font-specification:'Helvetica Bold';white-space:pre;fill:#191919;fill-opacity:0.996078;stroke-width:2.19124"
       d="m 121.87472,120.63528 h -7.43888 L 99.89619,95.347893 V 120.63528 H 92.964504 V 85.034885 h 7.801166 l 14.17737,24.852655 V 85.034885 h 6.93168 z"
       id="text19-4"
       aria-label="N" /><rect
       style="fill:none;fill-opacity:0.992727;stroke:#000000;stroke-width:6.24078;stroke-dasharray:none;stroke-opacity:1"
       id="rect20"
       width="52.579586"
       height="52.579586"
       x="81.129814"
       y="76.545288" /></g></svg>
